# xmcd
#
# Track frame offsets:
#	150
#	10927
#	38618
#	47140
#	69577
#	85369
#	125270
#	161296
#	177505
#	201805
#	212784
#	229469
#	260283
#	278480
#	297919
#
# Disc length: 4254 seconds
#
# Revision: 0
# Processed by: cddbd v1.4PL0 Copyright (c) Steve Scherf et al.
# Submitted via: EasyCDDAExtractor 4.6.0.1
#
DISCID=d3109c0f
DTITLE=Stevie Ray Vaughan - Bluesmasters collection - The Best Of
DYEAR=2002
DGENRE=Blues
TTITLE0=Love Struck Baby
TTITLE1=Ain't Gone 'N' Give Up On Love
TTITLE2=Scuffle Buffin
TTITLE3=Lenny
TTITLE4=Empty Arms
TTITLE5=Riviera Paradise
TTITLE6=Voodoo Chile
TTITLE7=Taxman
TTITLE8=Taxas Flood
TTITLE9=The House Is Rockin
TTITLE10=Pride And Joy
TTITLE11=Little Wing
TTITLE12=Cold Shot
TTITLE13=Life Without You
TTITLE14=Couldn't Stand The Weather
EXTD=
EXTT0=
EXTT1=
EXTT2=
EXTT3=
EXTT4=
EXTT5=
EXTT6=
EXTT7=
EXTT8=
EXTT9=
EXTT10=
EXTT11=
EXTT12=
EXTT13=
EXTT14=
PLAYORDER=
